<?xml version="1.0" standalone="no"?><!DOCTYPE svg PUBLIC "-//W3C//DTD SVG 1.1//EN"
    "http://www.w3.org/Graphics/SVG/1.1/DTD/svg11.dtd">
<svg viewBox="0 0 1024 1024" xmlns="http://www.w3.org/2000/svg" data-v-029747aa="">
  <path fill="currentColor"
        d="M160 448a32 32 0 0 1-32-32V160.064a32 32 0 0 1 32-32h256a32 32 0 0 1 32 32V416a32 32 0 0 1-32 32H160zm448 0a32 32 0 0 1-32-32V160.064a32 32 0 0 1 32-32h255.936a32 32 0 0 1 32 32V416a32 32 0 0 1-32 32H608zM160 896a32 32 0 0 1-32-32V608a32 32 0 0 1 32-32h256a32 32 0 0 1 32 32v256a32 32 0 0 1-32 32H160zm448 0a32 32 0 0 1-32-32V608a32 32 0 0 1 32-32h255.936a32 32 0 0 1 32 32v256a32 32 0 0 1-32 32H608z"></path>
</svg>
